<svg width="524" height="840.0000000000001" xmlns="http://www.w3.org/2000/svg">
 <defs>
  <filter height="200%" width="200%" y="-50%" x="-50%" id="imagebot_260_blur">
   <feGaussianBlur stdDeviation="1.7" in="SourceGraphic"/>
  </filter>
  <filter height="200%" width="200%" y="-50%" x="-50%" id="imagebot_269_blur">
   <feGaussianBlur stdDeviation="14.7" in="SourceGraphic"/>
  </filter>
 </defs>
 <metadata id="imagebot_9">image/svg+xml</metadata>
 <g label="ancils" id="imagebot_2">
  <title>ancils</title>
  <text transform="rotate(9.5503 255.898 411.273)" xml:space="preserve" text-anchor="middle" font-family="serif" font-size="24" id="imagebot_241" y="418.7793" x="255.89648" stroke-linecap="round" stroke-linejoin="round" stroke-dasharray="null" stroke-width="0" stroke="#000000" fill="#000000"/>
  <text transform="rotate(18.0049 348.664 357.57)" xml:space="preserve" text-anchor="middle" font-family="serif" font-size="24" id="imagebot_242" y="365.06836" x="348.66992" stroke-linecap="round" stroke-linejoin="round" stroke-dasharray="null" stroke-width="0" stroke="#000000" fill="#000000"/>
  <text id="imagebot_247" transform="rotate(9.5503 304.726 460.101) translate(48.8281 48.8281)" xml:space="preserve" text-anchor="middle" font-family="serif" font-size="24" y="418.7793" x="255.89648" stroke-linecap="round" stroke-linejoin="round" stroke-dasharray="null" stroke-width="0" stroke="#000000" fill="#000000"/>
  <text id="imagebot_248" transform="rotate(18.0049 397.492 406.398) translate(48.8281 48.8281)" xml:space="preserve" text-anchor="middle" font-family="serif" font-size="24" y="365.06836" x="348.66992" stroke-linecap="round" stroke-linejoin="round" stroke-dasharray="null" stroke-width="0" stroke="#000000" fill="#000000"/>
  <text id="imagebot_251" transform="rotate(9.5503 304.726 460.101) translate(48.8281 48.8281)" xml:space="preserve" text-anchor="middle" font-family="serif" font-size="24" y="418.7793" x="255.89648" stroke-linecap="round" stroke-linejoin="round" stroke-dasharray="null" stroke-width="0" stroke="#000000" fill="#000000"/>
  <text id="imagebot_252" transform="rotate(18.0049 397.492 406.398) translate(48.8281 48.8281)" xml:space="preserve" text-anchor="middle" font-family="serif" font-size="24" y="365.06836" x="348.66992" stroke-linecap="round" stroke-linejoin="round" stroke-dasharray="null" stroke-width="0" stroke="#000000" fill="#000000"/>
  <text id="imagebot_255" transform="rotate(9.5503 353.554 508.929) matrix(1 0 0 1 97.6562 97.6562)" xml:space="preserve" text-anchor="middle" font-family="serif" font-size="24" y="418.7793" x="255.89648" stroke-linecap="round" stroke-linejoin="round" stroke-dasharray="null" stroke-width="0" stroke="#000000" fill="#000000"/>
  <text id="imagebot_256" transform="rotate(18.0049 446.32 455.226) matrix(1 0 0 1 97.6562 97.6562)" xml:space="preserve" text-anchor="middle" font-family="serif" font-size="24" y="365.06836" x="348.66992" stroke-linecap="round" stroke-linejoin="round" stroke-dasharray="null" stroke-width="0" stroke="#000000" fill="#000000"/>
  <g transform="rotate(23.9827 262 420) matrix(1 0 0 1 7.32433 -89.683)" id="imagebot_268">
   <path transform="rotate(337.001 254.676 509.683) matrix(1 0 0 1 8.0935 -9.76563)" id="imagebot_238" d="M 219.275 289.385 C 219.275 289.385 70.3496 648.271 68.3594 646.973 L 307.617 749.512 L 424.805 466.309 L 383.301 349.121 L 219.275 289.385 Z" stroke-linecap="round" stroke-linejoin="round" stroke-dasharray="null" stroke-width="9.5" stroke="#000000" fill="#00e01d"/>
   <line transform="translate(-31.7383 7.32422) matrix(1 0 0 1 104.98 0)" id="imagebot_259" y2="367.50977" x2="211.95117" y1="367.50977" x1="102.08789" stroke-linecap="round" stroke-linejoin="round" stroke-dasharray="null" stroke-width="24" stroke="#000000" fill="none"/>
   <line transform="translate(78.8943 0) matrix(1 0 0 1 -14.197 -4.88281)" filter="url(#imagebot_260_blur)" opacity="0.71" id="imagebot_260" y2="445.63477" x2="297.40039" y1="445.63477" x1="97.20508" stroke-linecap="round" stroke-linejoin="round" stroke-dasharray="null" stroke-width="13.5" stroke="#000000" fill="none"/>
   <line id="imagebot_261" transform="translate(78.8942 0) matrix(1 0 0 1 -14.197 31.7383)" filter="url(#imagebot_260_blur)" opacity="0.71" y2="445.63477" x2="297.40039" y1="445.63477" x1="97.20508" stroke-linecap="round" stroke-linejoin="round" stroke-dasharray="null" stroke-width="13.5" stroke="#000000" fill="none"/>
   <line id="imagebot_262" transform="translate(78.8942 0) matrix(1 0 0 1 -14.197 73.2422)" filter="url(#imagebot_260_blur)" opacity="0.71" y2="445.63477" x2="297.40039" y1="445.63477" x1="97.20508" stroke-linecap="round" stroke-linejoin="round" stroke-dasharray="null" stroke-width="13.5" stroke="#000000" fill="none"/>
   <line id="imagebot_263" transform="translate(78.8943 0) matrix(1 0 0 1 -14.197 112.305)" filter="url(#imagebot_260_blur)" opacity="0.71" y2="445.63477" x2="297.40039" y1="445.63477" x1="97.20508" stroke-linecap="round" stroke-linejoin="round" stroke-dasharray="null" stroke-width="13.5" stroke="#000000" fill="none"/>
   <line id="imagebot_264" transform="translate(78.8943 0) matrix(1 0 0 1 -14.197 151.367)" filter="url(#imagebot_260_blur)" opacity="0.71" y2="445.63477" x2="297.40039" y1="445.63477" x1="97.20508" stroke-linecap="round" stroke-linejoin="round" stroke-dasharray="null" stroke-width="13.5" stroke="#000000" fill="none"/>
   <line id="imagebot_265" transform="translate(78.8943 0) matrix(1 0 0 1 -14.197 192.871)" filter="url(#imagebot_260_blur)" opacity="0.71" y2="445.63477" x2="297.40039" y1="445.63477" x1="97.20508" stroke-linecap="round" stroke-linejoin="round" stroke-dasharray="null" stroke-width="13.5" stroke="#000000" fill="none"/>
   <path id="imagebot_267" d="M 314.49 299.15 C 314.49 299.15 277.869 372.393 275.879 371.094 L 395.508 390.625 L 314.49 299.15 Z" stroke-linecap="round" stroke-linejoin="round" stroke-dasharray="null" stroke-width="9.5" stroke="#000000" fill="#00e01d"/>
  </g>
  <ellipse filter="url(#imagebot_269_blur)" opacity="0.65" ry="31.10712" rx="163.57422" id="imagebot_269" cy="742.00981" cx="262" stroke-opacity="0" stroke-linecap="round" stroke-linejoin="round" stroke-dasharray="null" stroke-width="9.5" stroke="#000000" fill="#000000"/>
 </g>
</svg>